<svg xmlns="http://www.w3.org/2000/svg" width="44" height="39" viewBox="0 0 44 39"><defs><mask id="6qt1b" width="2" height="2" x="-1" y="-1"><path fill="#fff" d="M6 4h32v7H6z"/><path d="M8.5 4.87h27a2.5 2.5 0 0 1 2.5 2.5v.926a2.5 2.5 0 0 1-2.5 2.5h-27a2.5 2.5 0 0 1-2.5-2.5V7.37a2.5 2.5 0 0 1 2.5-2.5z"/></mask><filter id="6qt1a" width="66" height="42" x="-11" y="-13" filterUnits="userSpaceOnUse"><feOffset dy="1" in="SourceGraphic" result="FeOffset1023Out"/><feGaussianBlur in="FeOffset1023Out" result="FeGaussianBlur1024Out" stdDeviation="2.8 2.8"/></filter><mask id="6qt1d" width="2" height="2" x="-1" y="-1"><path fill="#fff" d="M6 15h32v7H6z"/><path d="M8.5 15.537h27a2.5 2.5 0 0 1 2.5 2.5v.926a2.5 2.5 0 0 1-2.5 2.499h-27a2.5 2.5 0 0 1-2.5-2.5v-.926a2.5 2.5 0 0 1 2.5-2.499z"/></mask><filter id="6qt1c" width="66" height="42" x="-11" y="-2" filterUnits="userSpaceOnUse"><feOffset dy="1" in="SourceGraphic" result="FeOffset1039Out"/><feGaussianBlur in="FeOffset1039Out" result="FeGaussianBlur1040Out" stdDeviation="2.8 2.8"/></filter><mask id="6qt1f" width="2" height="2" x="-1" y="-1"><path fill="#fff" d="M6 26h32v7H6z"/><path d="M8.5 26.202h27c1.38 0 2.5 1.12 2.5 2.501v.926a2.5 2.5 0 0 1-2.5 2.5h-27a2.5 2.5 0 0 1-2.5-2.5v-.926a2.5 2.5 0 0 1 2.5-2.501z"/></mask><filter id="6qt1e" width="66" height="42" x="-11" y="9" filterUnits="userSpaceOnUse"><feOffset dy="1" in="SourceGraphic" result="FeOffset1055Out"/><feGaussianBlur in="FeOffset1055Out" result="FeGaussianBlur1056Out" stdDeviation="2.8 2.8"/></filter></defs><g><g><g filter="url(#6qt1a)"><path fill="none" d="M8.5 4.87h27a2.5 2.5 0 0 1 2.5 2.5v.926a2.5 2.5 0 0 1-2.5 2.5h-27a2.5 2.5 0 0 1-2.5-2.5V7.37a2.5 2.5 0 0 1 2.5-2.5z" mask="url(&quot;#6qt1b&quot;)"/><path fill-opacity=".27" d="M8.5 4.87h27a2.5 2.5 0 0 1 2.5 2.5v.926a2.5 2.5 0 0 1-2.5 2.5h-27a2.5 2.5 0 0 1-2.5-2.5V7.37a2.5 2.5 0 0 1 2.5-2.5z"/></g><path fill="#f4f4f9" d="M8.5 4.87h27a2.5 2.5 0 0 1 2.5 2.5v.926a2.5 2.5 0 0 1-2.5 2.5h-27a2.5 2.5 0 0 1-2.5-2.5V7.37a2.5 2.5 0 0 1 2.5-2.5z"/></g><g><g filter="url(#6qt1c)"><path fill="none" d="M8.5 15.537h27a2.5 2.5 0 0 1 2.5 2.5v.926a2.5 2.5 0 0 1-2.5 2.499h-27a2.5 2.5 0 0 1-2.5-2.5v-.926a2.5 2.5 0 0 1 2.5-2.499z" mask="url(&quot;#6qt1d&quot;)"/><path fill-opacity=".27" d="M8.5 15.537h27a2.5 2.5 0 0 1 2.5 2.5v.926a2.5 2.5 0 0 1-2.5 2.499h-27a2.5 2.5 0 0 1-2.5-2.5v-.926a2.5 2.5 0 0 1 2.5-2.499z"/></g><path fill="#f4f4f9" d="M8.5 15.537h27a2.5 2.5 0 0 1 2.5 2.5v.926a2.5 2.5 0 0 1-2.5 2.499h-27a2.5 2.5 0 0 1-2.5-2.5v-.926a2.5 2.5 0 0 1 2.5-2.499z"/></g><g><g filter="url(#6qt1e)"><path fill="none" d="M8.5 26.202h27c1.38 0 2.5 1.12 2.5 2.501v.926a2.5 2.5 0 0 1-2.5 2.5h-27a2.5 2.5 0 0 1-2.5-2.5v-.926a2.5 2.5 0 0 1 2.5-2.501z" mask="url(&quot;#6qt1f&quot;)"/><path fill-opacity=".27" d="M8.5 26.202h27c1.38 0 2.5 1.12 2.5 2.501v.926a2.5 2.5 0 0 1-2.5 2.5h-27a2.5 2.5 0 0 1-2.5-2.5v-.926a2.5 2.5 0 0 1 2.5-2.501z"/></g><path fill="#f4f4f9" d="M8.5 26.202h27c1.38 0 2.5 1.12 2.5 2.501v.926a2.5 2.5 0 0 1-2.5 2.5h-27a2.5 2.5 0 0 1-2.5-2.5v-.926a2.5 2.5 0 0 1 2.5-2.501z"/></g></g></svg>